<?xml version="1.0" encoding="UTF-8"?>
<svg id="Layer_2" data-name="Layer 2" xmlns="http://www.w3.org/2000/svg" viewBox="0 0 99.41 35.95">
  <defs>
    <style>
      .cls-1 {
        fill: #eefcff;
      }
    </style>
  </defs>
  <g id="Layer_1-2" data-name="Layer 1">
    <g>
      <path class="cls-1" d="M8.07,33.97c.48.15.88.33.88,1.03,0,.55-.48.95-1.06.95h-.15c-3.01,0-4.33-2.24-4.33-5.65v-7.41c0-2.09-.48-3.89-1.83-3.92h-.4c-.55-.04-1.17-.4-1.17-1.17,0-.7.51-1.06,1.17-1.1h.37c1.36-.04,1.87-1.61,1.87-3.74v-7.3C3.41,2.68,4.7,0,7.78,0h.11c.59,0,1.17.33,1.17.99,0,.73-.59.95-1.32,1.1l-.18.04c-1.54.29-2.09,1.61-2.09,3.67v7.81c0,1.8-.51,3.3-1.61,4.22,1.1.99,1.61,2.75,1.61,5.25v7.08c0,2.05.48,3.3,2.05,3.67l.55.15Z"/>
      <path class="cls-1" d="M24.87,28.8c.15-.07.33-.11.48-.15.62-.04,1.1.4,1.1,1.1,0,.4-.29.81-.66.99-1.39.7-2.79.81-4,.81-4.99,0-7.34-3.08-7.34-8.22v-11.74c0-5.14,2.35-8.29,7.34-8.29,1.21,0,2.6.11,4,.77.37.18.7.44.7,1.06,0,.59-.51,1.17-1.17,1.06l-.48-.15c-.99-.4-1.94-.55-2.93-.55-3.48,0-5.17,1.91-5.17,5.91v12.11c0,4,1.69,5.83,5.17,5.83.99,0,1.98-.18,2.97-.55Z"/>
      <path class="cls-1" d="M32.58,11.7c0-4.84,2.13-8.4,6.82-8.4s6.82,3.52,6.82,8.4v11.52c0,4.92-1.98,8.33-6.86,8.33s-6.79-3.56-6.79-8.33v-11.52ZM34.85,23.59c0,3.45,1.28,5.76,4.51,5.76s4.55-2.31,4.55-5.76v-12.33c0-3.67-1.39-5.76-4.55-5.76-2.97,0-4.51,2.02-4.51,5.76v12.33Z"/>
      <path class="cls-1" d="M62.44,18.85l4.22,10.89c.33.88-.15,1.76-1.06,1.76-.55,0-.99-.33-1.17-.81l-4.18-11.33c-.48.04-.95.07-1.5.07h-2.38v10.93c0,.59-.51,1.14-1.14,1.14-.66,0-1.14-.55-1.14-1.14V4.73c0-.62.48-1.14,1.14-1.14h3.38c6.35,0,8,3.16,8,7.74,0,3.81-1.17,6.42-4.14,7.52ZM56.35,5.8v11.48h2.42c4.81,0,5.47-2.75,5.47-5.65,0-4-1.21-5.83-5.76-5.83h-2.13Z"/>
      <path class="cls-1" d="M76.16,5.72v10.38h6.64c.59,0,1.06.48,1.06,1.06s-.48,1.06-1.06,1.06h-6.64v10.93h7.7c.59,0,1.06.48,1.06,1.06s-.48,1.06-1.06,1.06h-8.84c-.66,0-1.14-.55-1.14-1.14V4.73c0-.62.48-1.14,1.14-1.14h8.84c.59,0,1.06.48,1.06,1.06s-.48,1.06-1.06,1.06h-7.7Z"/>
      <path class="cls-1" d="M93.91,30.15v-7.08c0-2.49.55-4.25,1.65-5.25-1.1-.92-1.65-2.42-1.65-4.22v-7.81c0-2.05-.55-3.34-2.05-3.67l-.48-.11c-.59-.15-1.03-.37-1.03-1.03s.59-.99,1.14-.99h.15c3.08,0,4.33,2.68,4.33,5.65v7.3c0,2.13.55,3.71,1.91,3.74h.18c.77,0,1.36.37,1.36,1.1,0,.84-.73,1.17-1.39,1.17h-.18c-1.36.04-1.87,1.83-1.87,3.92v7.41c0,3.41-1.32,5.65-4.29,5.65h-.15c-.62,0-1.06-.4-1.06-.95,0-.77.55-.99,1.43-1.17,1.58-.33,2.02-1.61,2.02-3.67Z"/>
    </g>
  </g>
</svg>