<?xml version="1.0" encoding="UTF-8"?>
<svg id="Layer_2" xmlns="http://www.w3.org/2000/svg" version="1.1" viewBox="0 0 110.9 33.3">
  <!-- Generator: Adobe Illustrator 29.6.1, SVG Export Plug-In . SVG Version: 2.1.1 Build 9)  -->
  <defs>
    <style>
      .st0 {
        stroke: #10c7ff;
        stroke-width: 6.6px;
      }

      .st0, .st1, .st2 {
        fill: none;
        stroke-linecap: round;
        stroke-linejoin: round;
      }

      .st1 {
        stroke: #0e4066;
        stroke-width: 11.5px;
      }

      .st2 {
        stroke: #f637b4;
        stroke-width: 2.5px;
      }

      .st3 {
        fill: #fff;
      }
    </style>
  </defs>
  <g id="Layer_1-2">
    <g>
      <g>
        <path d="M18.3,13.7c2.3-1.9,2.8-4.6.8-6.3-2.5-2-8-2.1-10.7-.6-2.6,1.4-2.8,3.5-2.5,4.9h0c.1.5.6.6.6,0-.1-.6.8-2.2,2.7-3.3,1-.6,2.2-1,3.4-1.3-.5,1-3.5,6.9-4.4,8.9-.9,2.1-2.5,5.1-2.5,6s1.8,1.5,2.2,1.1c-.2-.5,1-3.5,2.1-5.9,1.7-.3,5.3-1.1,8.2-3.5ZM14.8,7.9c0-.4-.4-.7-1.1-.9,1.3,0,2.5,0,3.4.5,2,1.1,1,3.9-1.4,6-1.7,1.5-3.9,2.3-5.2,2.6,1.8-3.9,3.7-7.5,4.2-8.2Z"/>
        <path d="M38.4,11.9c-1,.7-2.3,1.8-3.6,3.8-.5.8-.9,1.6-1.2,2.3-1.2,1.3-2.4,2.6-2.8,2.5-.8-.3,1.9-5.5,2.4-6.3.4-.8-1.4-1.4-1.8-1-.1.4-5.7,7.4-6.5,7.3h0c-.9-.1,3.2-6.3,3.3-7,.2-.7-1.6-1.5-1.9-1,0,.4-1.4,2.3-2.4,4.2-1.2,1.6-3,3.7-3.7,4-1.2.6,0-3.1,1.7-6.4h0c1.8-3.5,2.9-5.4,3-6.1.1-.8-1.2-1.5-1.8-.9-.4.9-1.5,2.8-2.9,5.5-2.1,4-2.7,6-2.6,7.1.2,1.3,1.9,2.2,3,1.8.6-.3,1.4-1.1,2.2-2,0,1.3,1.7,2.2,2.6,1.6,1.7-.9,3.2-3.3,3.5-3.7-.1.4-.5,1.3-.3,2.2.2.8,1.5,1.8,2.8,1.5.5-.1,1.1-.7,1.7-1.4,0,0,0,.2,0,.2.3.6,1.9,1.4,2.5,1.1,1-.5,2-1.4,2.7-2.4-.5,1.1-1,2.2-1.8,3.6-.5,0-1,.2-1.5.3-1.8.4-5.2,1.5-5.5,2.3-.4,1,1.5,2.2,3.5,2.1,2.1-.1,3.9-1.9,5.3-4,1.8-.2,3.2-.2,3.7,0,.5,0,.7-.5.2-.6-.5-.2-1.7-.3-3.3-.2h0c.5-.8.9-1.7,1.3-2.5,1.4-3.4,2-4,2.1-4.2,0-.2-.3-.4-.6-.5.6-.2,1.3-.7,1.3-1.1,0-.7-2.6-3.4-4.8-1.9ZM35.6,24h0c-1.3,1.6-2.8,2.2-3.4,2.2s-2.5-.4,1.9-2.1c.6-.2,1.3-.4,1.9-.6l-.4.5ZM41.1,14.7c-.3,0-.7.2-.9.5l-.2.4c-1.1,1.8-4,4.7-4.6,4.6-.4,0,.4-2,1.6-4,.9-1.5,3.6-4.3,4.7-3.4.3.3-.3,1.2-.6,1.8Z"/>
        <path d="M60.2,18.4c-.8,1.1-2.3,2.6-3,2.7-1.1.1,1.5-4.9,2.2-6.8.4-1.2-1.2-2-2.1-1.7-1.8.6-5.3,5.3-5.3,5.3h0s1.8-3.5,1.9-4.3c0-.6-1.2-1.3-1.8-.9-.2,1.1-3.1,6.7-3.3,7.4-.2.7,1.6,1.5,2.2.9.3-.7,5.3-7.3,6.3-7.2.5,0-2,3.6-2.3,6-.2,1.4,2.3,2.9,3.5,2.2,1.1-.6,2-2.5,2.2-3.3,0-.2,0-.4-.4-.3Z"/>
        <path d="M78.8,13.7c2.3-1.9,2.8-4.6.8-6.3-2.5-2-8-2.1-10.7-.6-2.6,1.4-2.8,3.5-2.5,4.9h0c.1.5.6.6.6,0-.1-.6.8-2.2,2.7-3.3,1-.6,2.2-1,3.4-1.3-.5,1-3.5,6.9-4.4,8.9-.9,2.1-2.4,5.1-2.4,6s1.8,1.5,2.2,1.1c-.2-.5,1-3.5,2.1-5.9,1.7-.3,5.3-1.1,8.2-3.5ZM75.2,7.9c0-.4-.4-.7-1.1-.9,1.3,0,2.5,0,3.4.5,2,1.1,1,3.9-1.4,6-1.7,1.5-3.9,2.3-5.2,2.6,1.8-3.9,3.7-7.5,4.2-8.2Z"/>
        <path d="M104.3,22.3c-.5-.2-1.8-.2-3.4-.1h0c.5-.8,1-1.7,1.3-2.5,1.4-3.4,2.8-6,3-6.2-.2-.6-1.7-1.5-2.2-.4-.2.4-.5.8-.7,1.3-1.6,2.5-5,6.1-5.5,6.1-1.1-.1,2.4-6.9,3.2-7.3,0-.7-1.7-1.3-2.3-.7-.2.2-1.2,1.8-2,3.5-1,1.4-3.6,4.4-4.3,4.4-.5,0-.2-.8.4-2.2.5-1.2.7-1.5,1.1-2,.2-.2-.2-.8-.7-1.2.5,0,1.5-.5,1.7-1,.3-.8-2.2-2.6-3.5-2.3-1.1.2-2.5.8-4.2,2.8-.6.7-1.2,1.5-1.6,2.3-1.2,1.5-2.9,3.5-3.6,3.9-1.2.6,0-3.1,1.7-6.4h0c1.8-3.5,2.9-5.4,3-6.1.1-.8-1.2-1.5-1.8-.9-.4.9-1.5,2.8-2.9,5.5-2.1,4-2.7,6-2.6,7.1.2,1.3,1.9,2.2,3,1.8.6-.3,1.5-1.2,2.3-2.2,0,.1,0,.3,0,.4.1.8,2,2,2.6,1.7,1.2-.6,2.7-2.6,3.3-3.6-.4.9-.6,2.2-.2,2.6.7.7,1.8,1.4,3,.5.6-.4,1.5-1.4,2.2-2.4,0,.2-.1.5-.1.7,0,1.2,1.9,2.1,2.8,1.9.6,0,2.1-1.7,3.3-3.3l-.3.6c-.6,1.2-1,2.3-2.1,3.8-3.3.5-6.8,1.4-7.4,2.6-.5,1,1.5,2.6,3,2.6,2.4,0,4.7-2,6.3-4.5,2-.3,3.6-.3,4-.2.4,0,.6-.5.1-.7ZM85.7,20.3c-.3,0,0-1.7,2.2-4.7,1.5-2,3.7-3.2,4.1-2.9.4.3-.3,1.5-.4,2h0c-.4-.2-.7-.2-.8,0-.9,1.6-4.6,5.8-5.2,5.6ZM97.2,23.7c-2.2,2.4-3.5,2.8-4.5,2.7-1.2-.1-.2-1.2,2.9-2.3.5-.2,1.1-.4,1.7-.5,0,0,0,0,0,0h0Z"/>
      </g>
      <g>
        <path class="st1" d="M18.3,13.7c2.3-1.9,2.8-4.6.8-6.3-2.5-2-8-2.1-10.7-.6-2.6,1.4-2.8,3.5-2.5,4.9h0c.1.5.6.6.6,0-.1-.6.8-2.2,2.7-3.3,1-.6,2.2-1,3.4-1.3-.5,1-3.5,6.9-4.4,8.9-.9,2.1-2.5,5.1-2.5,6s1.8,1.5,2.2,1.1c-.2-.5,1-3.5,2.1-5.9,1.7-.3,5.3-1.1,8.2-3.5ZM14.8,7.9c0-.4-.4-.7-1.1-.9,1.3,0,2.5,0,3.4.5,2,1.1,1,3.9-1.4,6-1.7,1.5-3.9,2.3-5.2,2.6,1.8-3.9,3.7-7.5,4.2-8.2Z"/>
        <path class="st1" d="M38.4,11.9c-1,.7-2.3,1.8-3.6,3.8-.5.8-.9,1.6-1.2,2.3-1.2,1.3-2.4,2.6-2.8,2.5-.8-.3,1.9-5.5,2.4-6.3.4-.8-1.4-1.4-1.8-1-.1.4-5.7,7.4-6.5,7.3h0c-.9-.1,3.2-6.3,3.3-7,.2-.7-1.6-1.5-1.9-1,0,.4-1.4,2.3-2.4,4.2-1.2,1.6-3,3.7-3.7,4-1.2.6,0-3.1,1.7-6.4h0c1.8-3.5,2.9-5.4,3-6.1.1-.8-1.2-1.5-1.8-.9-.4.9-1.5,2.8-2.9,5.5-2.1,4-2.7,6-2.6,7.1.2,1.3,1.9,2.2,3,1.8.6-.3,1.4-1.1,2.2-2,0,1.3,1.7,2.2,2.6,1.6,1.7-.9,3.2-3.3,3.5-3.7-.1.4-.5,1.3-.3,2.2.2.8,1.5,1.8,2.8,1.5.5-.1,1.1-.7,1.7-1.4,0,0,0,.2,0,.2.3.6,1.9,1.4,2.5,1.1,1-.5,2-1.4,2.7-2.4-.5,1.1-1,2.2-1.8,3.6-.5,0-1,.2-1.5.3-1.8.4-5.2,1.5-5.5,2.3-.4,1,1.5,2.2,3.5,2.1,2.1-.1,3.9-1.9,5.3-4,1.8-.2,3.2-.2,3.7,0,.5,0,.7-.5.2-.6-.5-.2-1.7-.3-3.3-.2h0c.5-.8.9-1.7,1.3-2.5,1.4-3.4,2-4,2.1-4.2,0-.2-.3-.4-.6-.5.6-.2,1.3-.7,1.3-1.1,0-.7-2.6-3.4-4.8-1.9ZM35.6,24h0c-1.3,1.6-2.8,2.2-3.4,2.2s-2.5-.4,1.9-2.1c.6-.2,1.3-.4,1.9-.6l-.4.5ZM41.1,14.7c-.3,0-.7.2-.9.5l-.2.4c-1.1,1.8-4,4.7-4.6,4.6-.4,0,.4-2,1.6-4,.9-1.5,3.6-4.3,4.7-3.4.3.3-.3,1.2-.6,1.8Z"/>
        <path class="st1" d="M60.2,18.4c-.8,1.1-2.3,2.6-3,2.7-1.1.1,1.5-4.9,2.2-6.8.4-1.2-1.2-2-2.1-1.7-1.8.6-5.3,5.3-5.3,5.3h0s1.8-3.5,1.9-4.3c0-.6-1.2-1.3-1.8-.9-.2,1.1-3.1,6.7-3.3,7.4-.2.7,1.6,1.5,2.2.9.3-.7,5.3-7.3,6.3-7.2.5,0-2,3.6-2.3,6-.2,1.4,2.3,2.9,3.5,2.2,1.1-.6,2-2.5,2.2-3.3,0-.2,0-.4-.4-.3Z"/>
        <path class="st1" d="M78.8,13.7c2.3-1.9,2.8-4.6.8-6.3-2.5-2-8-2.1-10.7-.6-2.6,1.4-2.8,3.5-2.5,4.9h0c.1.5.6.6.6,0-.1-.6.8-2.2,2.7-3.3,1-.6,2.2-1,3.4-1.3-.5,1-3.5,6.9-4.4,8.9-.9,2.1-2.4,5.1-2.4,6s1.8,1.5,2.2,1.1c-.2-.5,1-3.5,2.1-5.9,1.7-.3,5.3-1.1,8.2-3.5ZM75.2,7.9c0-.4-.4-.7-1.1-.9,1.3,0,2.5,0,3.4.5,2,1.1,1,3.9-1.4,6-1.7,1.5-3.9,2.3-5.2,2.6,1.8-3.9,3.7-7.5,4.2-8.2Z"/>
        <path class="st1" d="M104.3,22.3c-.5-.2-1.8-.2-3.4-.1h0c.5-.8,1-1.7,1.3-2.5,1.4-3.4,2.8-6,3-6.2-.2-.6-1.7-1.5-2.2-.4-.2.4-.5.8-.7,1.3-1.6,2.5-5,6.1-5.5,6.1-1.1-.1,2.4-6.9,3.2-7.3,0-.7-1.7-1.3-2.3-.7-.2.2-1.2,1.8-2,3.5-1,1.4-3.6,4.4-4.3,4.4-.5,0-.2-.8.4-2.2.5-1.2.7-1.5,1.1-2,.2-.2-.2-.8-.7-1.2.5,0,1.5-.5,1.7-1,.3-.8-2.2-2.6-3.5-2.3-1.1.2-2.5.8-4.2,2.8-.6.7-1.2,1.5-1.6,2.3-1.2,1.5-2.9,3.5-3.6,3.9-1.2.6,0-3.1,1.7-6.4h0c1.8-3.5,2.9-5.4,3-6.1.1-.8-1.2-1.5-1.8-.9-.4.9-1.5,2.8-2.9,5.5-2.1,4-2.7,6-2.6,7.1.2,1.3,1.9,2.2,3,1.8.6-.3,1.5-1.2,2.3-2.2,0,.1,0,.3,0,.4.1.8,2,2,2.6,1.7,1.2-.6,2.7-2.6,3.3-3.6-.4.9-.6,2.2-.2,2.6.7.7,1.8,1.4,3,.5.6-.4,1.5-1.4,2.2-2.4,0,.2-.1.5-.1.7,0,1.2,1.9,2.1,2.8,1.9.6,0,2.1-1.7,3.3-3.3l-.3.6c-.6,1.2-1,2.3-2.1,3.8-3.3.5-6.8,1.4-7.4,2.6-.5,1,1.5,2.6,3,2.6,2.4,0,4.7-2,6.3-4.5,2-.3,3.6-.3,4-.2.4,0,.6-.5.1-.7ZM85.7,20.3c-.3,0,0-1.7,2.2-4.7,1.5-2,3.7-3.2,4.1-2.9.4.3-.3,1.5-.4,2h0c-.4-.2-.7-.2-.8,0-.9,1.6-4.6,5.8-5.2,5.6ZM97.2,23.7c-2.2,2.4-3.5,2.8-4.5,2.7-1.2-.1-.2-1.2,2.9-2.3.5-.2,1.1-.4,1.7-.5,0,0,0,0,0,0h0Z"/>
      </g>
      <g>
        <path class="st0" d="M18.3,13.7c2.3-1.9,2.8-4.6.8-6.3-2.5-2-8-2.1-10.7-.6-2.6,1.4-2.8,3.5-2.5,4.9h0c.1.5.6.6.6,0-.1-.6.8-2.2,2.7-3.3,1-.6,2.2-1,3.4-1.3-.5,1-3.5,6.9-4.4,8.9-.9,2.1-2.5,5.1-2.5,6s1.8,1.5,2.2,1.1c-.2-.5,1-3.5,2.1-5.9,1.7-.3,5.3-1.1,8.2-3.5ZM14.8,7.9c0-.4-.4-.7-1.1-.9,1.3,0,2.5,0,3.4.5,2,1.1,1,3.9-1.4,6-1.7,1.5-3.9,2.3-5.2,2.6,1.8-3.9,3.7-7.5,4.2-8.2Z"/>
        <path class="st0" d="M38.4,11.9c-1,.7-2.3,1.8-3.6,3.8-.5.8-.9,1.6-1.2,2.3-1.2,1.3-2.4,2.6-2.8,2.5-.8-.3,1.9-5.5,2.4-6.3.4-.8-1.4-1.4-1.8-1-.1.4-5.7,7.4-6.5,7.3h0c-.9-.1,3.2-6.3,3.3-7,.2-.7-1.6-1.5-1.9-1,0,.4-1.4,2.3-2.4,4.2-1.2,1.6-3,3.7-3.7,4-1.2.6,0-3.1,1.7-6.4h0c1.8-3.5,2.9-5.4,3-6.1.1-.8-1.2-1.5-1.8-.9-.4.9-1.5,2.8-2.9,5.5-2.1,4-2.7,6-2.6,7.1.2,1.3,1.9,2.2,3,1.8.6-.3,1.4-1.1,2.2-2,0,1.3,1.7,2.2,2.6,1.6,1.7-.9,3.2-3.3,3.5-3.7-.1.4-.5,1.3-.3,2.2.2.8,1.5,1.8,2.8,1.5.5-.1,1.1-.7,1.7-1.4,0,0,0,.2,0,.2.3.6,1.9,1.4,2.5,1.1,1-.5,2-1.4,2.7-2.4-.5,1.1-1,2.2-1.8,3.6-.5,0-1,.2-1.5.3-1.8.4-5.2,1.5-5.5,2.3-.4,1,1.5,2.2,3.5,2.1,2.1-.1,3.9-1.9,5.3-4,1.8-.2,3.2-.2,3.7,0,.5,0,.7-.5.2-.6-.5-.2-1.7-.3-3.3-.2h0c.5-.8.9-1.7,1.3-2.5,1.4-3.4,2-4,2.1-4.2,0-.2-.3-.4-.6-.5.6-.2,1.3-.7,1.3-1.1,0-.7-2.6-3.4-4.8-1.9ZM35.6,24h0c-1.3,1.6-2.8,2.2-3.4,2.2s-2.5-.4,1.9-2.1c.6-.2,1.3-.4,1.9-.6l-.4.5ZM41.1,14.7c-.3,0-.7.2-.9.5l-.2.4c-1.1,1.8-4,4.7-4.6,4.6-.4,0,.4-2,1.6-4,.9-1.5,3.6-4.3,4.7-3.4.3.3-.3,1.2-.6,1.8Z"/>
        <path class="st0" d="M60.2,18.4c-.8,1.1-2.3,2.6-3,2.7-1.1.1,1.5-4.9,2.2-6.8.4-1.2-1.2-2-2.1-1.7-1.8.6-5.3,5.3-5.3,5.3h0s1.8-3.5,1.9-4.3c0-.6-1.2-1.3-1.8-.9-.2,1.1-3.1,6.7-3.3,7.4-.2.7,1.6,1.5,2.2.9.3-.7,5.3-7.3,6.3-7.2.5,0-2,3.6-2.3,6-.2,1.4,2.3,2.9,3.5,2.2,1.1-.6,2-2.5,2.2-3.3,0-.2,0-.4-.4-.3Z"/>
        <path class="st0" d="M78.8,13.7c2.3-1.9,2.8-4.6.8-6.3-2.5-2-8-2.1-10.7-.6-2.6,1.4-2.8,3.5-2.5,4.9h0c.1.5.6.6.6,0-.1-.6.8-2.2,2.7-3.3,1-.6,2.2-1,3.4-1.3-.5,1-3.5,6.9-4.4,8.9-.9,2.1-2.4,5.1-2.4,6s1.8,1.5,2.2,1.1c-.2-.5,1-3.5,2.1-5.9,1.7-.3,5.3-1.1,8.2-3.5ZM75.2,7.9c0-.4-.4-.7-1.1-.9,1.3,0,2.5,0,3.4.5,2,1.1,1,3.9-1.4,6-1.7,1.5-3.9,2.3-5.2,2.6,1.8-3.9,3.7-7.5,4.2-8.2Z"/>
        <path class="st0" d="M104.3,22.3c-.5-.2-1.8-.2-3.4-.1h0c.5-.8,1-1.7,1.3-2.5,1.4-3.4,2.8-6,3-6.2-.2-.6-1.7-1.5-2.2-.4-.2.4-.5.8-.7,1.3-1.6,2.5-5,6.1-5.5,6.1-1.1-.1,2.4-6.9,3.2-7.3,0-.7-1.7-1.3-2.3-.7-.2.2-1.2,1.8-2,3.5-1,1.4-3.6,4.4-4.3,4.4-.5,0-.2-.8.4-2.2.5-1.2.7-1.5,1.1-2,.2-.2-.2-.8-.7-1.2.5,0,1.5-.5,1.7-1,.3-.8-2.2-2.6-3.5-2.3-1.1.2-2.5.8-4.2,2.8-.6.7-1.2,1.5-1.6,2.3-1.2,1.5-2.9,3.5-3.6,3.9-1.2.6,0-3.1,1.7-6.4h0c1.8-3.5,2.9-5.4,3-6.1.1-.8-1.2-1.5-1.8-.9-.4.9-1.5,2.8-2.9,5.5-2.1,4-2.7,6-2.6,7.1.2,1.3,1.9,2.2,3,1.8.6-.3,1.5-1.2,2.3-2.2,0,.1,0,.3,0,.4.1.8,2,2,2.6,1.7,1.2-.6,2.7-2.6,3.3-3.6-.4.9-.6,2.2-.2,2.6.7.7,1.8,1.4,3,.5.6-.4,1.5-1.4,2.2-2.4,0,.2-.1.5-.1.7,0,1.2,1.9,2.1,2.8,1.9.6,0,2.1-1.7,3.3-3.3l-.3.6c-.6,1.2-1,2.3-2.1,3.8-3.3.5-6.8,1.4-7.4,2.6-.5,1,1.5,2.6,3,2.6,2.4,0,4.7-2,6.3-4.5,2-.3,3.6-.3,4-.2.4,0,.6-.5.1-.7ZM85.7,20.3c-.3,0,0-1.7,2.2-4.7,1.5-2,3.7-3.2,4.1-2.9.4.3-.3,1.5-.4,2h0c-.4-.2-.7-.2-.8,0-.9,1.6-4.6,5.8-5.2,5.6ZM97.2,23.7c-2.2,2.4-3.5,2.8-4.5,2.7-1.2-.1-.2-1.2,2.9-2.3.5-.2,1.1-.4,1.7-.5,0,0,0,0,0,0h0Z"/>
      </g>
      <g>
        <path class="st2" d="M18.3,13.7c2.3-1.9,2.8-4.6.8-6.3-2.5-2-8-2.1-10.7-.6-2.6,1.4-2.8,3.5-2.5,4.9h0c.1.5.6.6.6,0-.1-.6.8-2.2,2.7-3.3,1-.6,2.2-1,3.4-1.3-.5,1-3.5,6.9-4.4,8.9-.9,2.1-2.5,5.1-2.5,6s1.8,1.5,2.2,1.1c-.2-.5,1-3.5,2.1-5.9,1.7-.3,5.3-1.1,8.2-3.5ZM14.8,7.9c0-.4-.4-.7-1.1-.9,1.3,0,2.5,0,3.4.5,2,1.1,1,3.9-1.4,6-1.7,1.5-3.9,2.3-5.2,2.6,1.8-3.9,3.7-7.5,4.2-8.2Z"/>
        <path class="st2" d="M38.4,11.9c-1,.7-2.3,1.8-3.6,3.8-.5.8-.9,1.6-1.2,2.3-1.2,1.3-2.4,2.6-2.8,2.5-.8-.3,1.9-5.5,2.4-6.3.4-.8-1.4-1.4-1.8-1-.1.4-5.7,7.4-6.5,7.3h0c-.9-.1,3.2-6.3,3.3-7,.2-.7-1.6-1.5-1.9-1,0,.4-1.4,2.3-2.4,4.2-1.2,1.6-3,3.7-3.7,4-1.2.6,0-3.1,1.7-6.4h0c1.8-3.5,2.9-5.4,3-6.1.1-.8-1.2-1.5-1.8-.9-.4.9-1.5,2.8-2.9,5.5-2.1,4-2.7,6-2.6,7.1.2,1.3,1.9,2.2,3,1.8.6-.3,1.4-1.1,2.2-2,0,1.3,1.7,2.2,2.6,1.6,1.7-.9,3.2-3.3,3.5-3.7-.1.4-.5,1.3-.3,2.2.2.8,1.5,1.8,2.8,1.5.5-.1,1.1-.7,1.7-1.4,0,0,0,.2,0,.2.3.6,1.9,1.4,2.5,1.1,1-.5,2-1.4,2.7-2.4-.5,1.1-1,2.2-1.8,3.6-.5,0-1,.2-1.5.3-1.8.4-5.2,1.5-5.5,2.3-.4,1,1.5,2.2,3.5,2.1,2.1-.1,3.9-1.9,5.3-4,1.8-.2,3.2-.2,3.7,0,.5,0,.7-.5.2-.6-.5-.2-1.7-.3-3.3-.2h0c.5-.8.9-1.7,1.3-2.5,1.4-3.4,2-4,2.1-4.2,0-.2-.3-.4-.6-.5.6-.2,1.3-.7,1.3-1.1,0-.7-2.6-3.4-4.8-1.9ZM35.6,24h0c-1.3,1.6-2.8,2.2-3.4,2.2s-2.5-.4,1.9-2.1c.6-.2,1.3-.4,1.9-.6l-.4.5ZM41.1,14.7c-.3,0-.7.2-.9.5l-.2.4c-1.1,1.8-4,4.7-4.6,4.6-.4,0,.4-2,1.6-4,.9-1.5,3.6-4.3,4.7-3.4.3.3-.3,1.2-.6,1.8Z"/>
        <path class="st2" d="M60.2,18.4c-.8,1.1-2.3,2.6-3,2.7-1.1.1,1.5-4.9,2.2-6.8.4-1.2-1.2-2-2.1-1.7-1.8.6-5.3,5.3-5.3,5.3h0s1.8-3.5,1.9-4.3c0-.6-1.2-1.3-1.8-.9-.2,1.1-3.1,6.7-3.3,7.4-.2.7,1.6,1.5,2.2.9.3-.7,5.3-7.3,6.3-7.2.5,0-2,3.6-2.3,6-.2,1.4,2.3,2.9,3.5,2.2,1.1-.6,2-2.5,2.2-3.3,0-.2,0-.4-.4-.3Z"/>
        <path class="st2" d="M78.8,13.7c2.3-1.9,2.8-4.6.8-6.3-2.5-2-8-2.1-10.7-.6-2.6,1.4-2.8,3.5-2.5,4.9h0c.1.5.6.6.6,0-.1-.6.8-2.2,2.7-3.3,1-.6,2.2-1,3.4-1.3-.5,1-3.5,6.9-4.4,8.9-.9,2.1-2.4,5.1-2.4,6s1.8,1.5,2.2,1.1c-.2-.5,1-3.5,2.1-5.9,1.7-.3,5.3-1.1,8.2-3.5ZM75.2,7.9c0-.4-.4-.7-1.1-.9,1.3,0,2.5,0,3.4.5,2,1.1,1,3.9-1.4,6-1.7,1.5-3.9,2.3-5.2,2.6,1.8-3.9,3.7-7.5,4.2-8.2Z"/>
        <path class="st2" d="M104.3,22.3c-.5-.2-1.8-.2-3.4-.1h0c.5-.8,1-1.7,1.3-2.5,1.4-3.4,2.8-6,3-6.2-.2-.6-1.7-1.5-2.2-.4-.2.4-.5.8-.7,1.3-1.6,2.5-5,6.1-5.5,6.1-1.1-.1,2.4-6.9,3.2-7.3,0-.7-1.7-1.3-2.3-.7-.2.2-1.2,1.8-2,3.5-1,1.4-3.6,4.4-4.3,4.4-.5,0-.2-.8.4-2.2.5-1.2.7-1.5,1.1-2,.2-.2-.2-.8-.7-1.2.5,0,1.5-.5,1.7-1,.3-.8-2.2-2.6-3.5-2.3-1.1.2-2.5.8-4.2,2.8-.6.7-1.2,1.5-1.6,2.3-1.2,1.5-2.9,3.5-3.6,3.9-1.2.6,0-3.1,1.7-6.4h0c1.8-3.5,2.9-5.4,3-6.1.1-.8-1.2-1.5-1.8-.9-.4.9-1.5,2.8-2.9,5.5-2.1,4-2.7,6-2.6,7.1.2,1.3,1.9,2.2,3,1.8.6-.3,1.5-1.2,2.3-2.2,0,.1,0,.3,0,.4.1.8,2,2,2.6,1.7,1.2-.6,2.7-2.6,3.3-3.6-.4.9-.6,2.2-.2,2.6.7.7,1.8,1.4,3,.5.6-.4,1.5-1.4,2.2-2.4,0,.2-.1.5-.1.7,0,1.2,1.9,2.1,2.8,1.9.6,0,2.1-1.7,3.3-3.3l-.3.6c-.6,1.2-1,2.3-2.1,3.8-3.3.5-6.8,1.4-7.4,2.6-.5,1,1.5,2.6,3,2.6,2.4,0,4.7-2,6.3-4.5,2-.3,3.6-.3,4-.2.4,0,.6-.5.1-.7ZM85.7,20.3c-.3,0,0-1.7,2.2-4.7,1.5-2,3.7-3.2,4.1-2.9.4.3-.3,1.5-.4,2h0c-.4-.2-.7-.2-.8,0-.9,1.6-4.6,5.8-5.2,5.6ZM97.2,23.7c-2.2,2.4-3.5,2.8-4.5,2.7-1.2-.1-.2-1.2,2.9-2.3.5-.2,1.1-.4,1.7-.5,0,0,0,0,0,0h0Z"/>
      </g>
      <g>
        <path class="st3" d="M18.3,13.7c2.3-1.9,2.8-4.6.8-6.3-2.5-2-8-2.1-10.7-.6-2.6,1.4-2.8,3.5-2.5,4.9h0c.1.5.6.6.6,0-.1-.6.8-2.2,2.7-3.3,1-.6,2.2-1,3.4-1.3-.5,1-3.5,6.9-4.4,8.9-.9,2.1-2.5,5.1-2.5,6s1.8,1.5,2.2,1.1c-.2-.5,1-3.5,2.1-5.9,1.7-.3,5.3-1.1,8.2-3.5ZM14.8,7.9c0-.4-.4-.7-1.1-.9,1.3,0,2.5,0,3.4.5,2,1.1,1,3.9-1.4,6-1.7,1.5-3.9,2.3-5.2,2.6,1.8-3.9,3.7-7.5,4.2-8.2Z"/>
        <path class="st3" d="M38.4,11.9c-1,.7-2.3,1.8-3.6,3.8-.5.8-.9,1.6-1.2,2.3-1.2,1.3-2.4,2.6-2.8,2.5-.8-.3,1.9-5.5,2.4-6.3.4-.8-1.4-1.4-1.8-1-.1.4-5.7,7.4-6.5,7.3h0c-.9-.1,3.2-6.3,3.3-7,.2-.7-1.6-1.5-1.9-1,0,.4-1.4,2.3-2.4,4.2-1.2,1.6-3,3.7-3.7,4-1.2.6,0-3.1,1.7-6.4h0c1.8-3.5,2.9-5.4,3-6.1.1-.8-1.2-1.5-1.8-.9-.4.9-1.5,2.8-2.9,5.5-2.1,4-2.7,6-2.6,7.1.2,1.3,1.9,2.2,3,1.8.6-.3,1.4-1.1,2.2-2,0,1.3,1.7,2.2,2.6,1.6,1.7-.9,3.2-3.3,3.5-3.7-.1.4-.5,1.3-.3,2.2.2.8,1.5,1.8,2.8,1.5.5-.1,1.1-.7,1.7-1.4,0,0,0,.2,0,.2.3.6,1.9,1.4,2.5,1.1,1-.5,2-1.4,2.7-2.4-.5,1.1-1,2.2-1.8,3.6-.5,0-1,.2-1.5.3-1.8.4-5.2,1.5-5.5,2.3-.4,1,1.5,2.2,3.5,2.1,2.1-.1,3.9-1.9,5.3-4,1.8-.2,3.2-.2,3.7,0,.5,0,.7-.5.2-.6-.5-.2-1.7-.3-3.3-.2h0c.5-.8.9-1.7,1.3-2.5,1.4-3.4,2-4,2.1-4.2,0-.2-.3-.4-.6-.5.6-.2,1.3-.7,1.3-1.1,0-.7-2.6-3.4-4.8-1.9ZM35.6,24h0c-1.3,1.6-2.8,2.2-3.4,2.2s-2.5-.4,1.9-2.1c.6-.2,1.3-.4,1.9-.6l-.4.5ZM41.1,14.7c-.3,0-.7.2-.9.5l-.2.4c-1.1,1.8-4,4.7-4.6,4.6-.4,0,.4-2,1.6-4,.9-1.5,3.6-4.3,4.7-3.4.3.3-.3,1.2-.6,1.8Z"/>
        <path class="st3" d="M60.2,18.4c-.8,1.1-2.3,2.6-3,2.7-1.1.1,1.5-4.9,2.2-6.8.4-1.2-1.2-2-2.1-1.7-1.8.6-5.3,5.3-5.3,5.3h0s1.8-3.5,1.9-4.3c0-.6-1.2-1.3-1.8-.9-.2,1.1-3.1,6.7-3.3,7.4-.2.7,1.6,1.5,2.2.9.3-.7,5.3-7.3,6.3-7.2.5,0-2,3.6-2.3,6-.2,1.4,2.3,2.9,3.5,2.2,1.1-.6,2-2.5,2.2-3.3,0-.2,0-.4-.4-.3Z"/>
        <path class="st3" d="M78.8,13.7c2.3-1.9,2.8-4.6.8-6.3-2.5-2-8-2.1-10.7-.6-2.6,1.4-2.8,3.5-2.5,4.9h0c.1.5.6.6.6,0-.1-.6.8-2.2,2.7-3.3,1-.6,2.2-1,3.4-1.3-.5,1-3.5,6.9-4.4,8.9-.9,2.1-2.4,5.1-2.4,6s1.8,1.5,2.2,1.1c-.2-.5,1-3.5,2.1-5.9,1.7-.3,5.3-1.1,8.2-3.5ZM75.2,7.9c0-.4-.4-.7-1.1-.9,1.3,0,2.5,0,3.4.5,2,1.1,1,3.9-1.4,6-1.7,1.5-3.9,2.3-5.2,2.6,1.8-3.9,3.7-7.5,4.2-8.2Z"/>
        <path class="st3" d="M104.3,22.3c-.5-.2-1.8-.2-3.4-.1h0c.5-.8,1-1.7,1.3-2.5,1.4-3.4,2.8-6,3-6.2-.2-.6-1.7-1.5-2.2-.4-.2.4-.5.8-.7,1.3-1.6,2.5-5,6.1-5.5,6.1-1.1-.1,2.4-6.9,3.2-7.3,0-.7-1.7-1.3-2.3-.7-.2.2-1.2,1.8-2,3.5-1,1.4-3.6,4.4-4.3,4.4-.5,0-.2-.8.4-2.2.5-1.2.7-1.5,1.1-2,.2-.2-.2-.8-.7-1.2.5,0,1.5-.5,1.7-1,.3-.8-2.2-2.6-3.5-2.3-1.1.2-2.5.8-4.2,2.8-.6.7-1.2,1.5-1.6,2.3-1.2,1.5-2.9,3.5-3.6,3.9-1.2.6,0-3.1,1.7-6.4h0c1.8-3.5,2.9-5.4,3-6.1.1-.8-1.2-1.5-1.8-.9-.4.9-1.5,2.8-2.9,5.5-2.1,4-2.7,6-2.6,7.1.2,1.3,1.9,2.2,3,1.8.6-.3,1.5-1.2,2.3-2.2,0,.1,0,.3,0,.4.1.8,2,2,2.6,1.7,1.2-.6,2.7-2.6,3.3-3.6-.4.9-.6,2.2-.2,2.6.7.7,1.8,1.4,3,.5.6-.4,1.5-1.4,2.2-2.4,0,.2-.1.5-.1.7,0,1.2,1.9,2.1,2.8,1.9.6,0,2.1-1.7,3.3-3.3l-.3.6c-.6,1.2-1,2.3-2.1,3.8-3.3.5-6.8,1.4-7.4,2.6-.5,1,1.5,2.6,3,2.6,2.4,0,4.7-2,6.3-4.5,2-.3,3.6-.3,4-.2.4,0,.6-.5.1-.7ZM85.7,20.3c-.3,0,0-1.7,2.2-4.7,1.5-2,3.7-3.2,4.1-2.9.4.3-.3,1.5-.4,2h0c-.4-.2-.7-.2-.8,0-.9,1.6-4.6,5.8-5.2,5.6ZM97.2,23.7c-2.2,2.4-3.5,2.8-4.5,2.7-1.2-.1-.2-1.2,2.9-2.3.5-.2,1.1-.4,1.7-.5,0,0,0,0,0,0h0Z"/>
      </g>
    </g>
  </g>
</svg>