<?xml version="1.0" encoding="UTF-8"?>
<svg id="Layer_2" data-name="Layer 2" xmlns="http://www.w3.org/2000/svg" viewBox="0 0 110.93 33.34">
  <defs>
    <style>
      .cls-1 {
        stroke: #0e4066;
        stroke-width: 11.49px;
      }

      .cls-1, .cls-2, .cls-3 {
        fill: none;
        stroke-linecap: round;
        stroke-linejoin: round;
      }

      .cls-2 {
        stroke: #10c7ff;
        stroke-width: 6.57px;
      }

      .cls-3 {
        stroke: #f637b4;
        stroke-width: 2.46px;
      }

      .cls-4 {
        fill: #fff;
      }
    </style>
  </defs>
  <g id="Layer_1-2" data-name="Layer 1">
    <g>
      <g>
        <path d="M5.89,11.66c-.38-1.36-.17-3.45,2.47-4.88,2.74-1.47,8.25-1.45,10.71.59,2.05,1.71,1.59,4.38-.76,6.3-2.95,2.43-6.59,3.24-8.25,3.52-1.09,2.4-2.28,5.4-2.12,5.9-.38.33-2.19-.31-2.19-1.14,0-.9,1.57-3.83,2.45-5.95.88-2.07,3.92-7.99,4.42-8.94-1.17.24-2.35.67-3.38,1.28-1.95,1.17-2.83,2.76-2.71,3.33-.02.57-.52.45-.64-.02ZM10.56,16.08c1.33-.36,3.47-1.17,5.19-2.62,2.4-2.05,3.42-4.9,1.4-5.99-.9-.48-2.12-.64-3.43-.55.62.21,1.12.5,1.05.93-.55.69-2.43,4.35-4.21,8.23Z"/>
        <path d="M22.14,14.23c-1.64,3.28-2.85,6.95-1.69,6.4,1-.48,3.76-3.97,4.62-5.28.36-.55.88-.07.62.38-.71,1.33-3.35,5.28-4.8,5.9-1.07.45-2.78-.48-2.97-1.78-.14-1.17.45-3.14,2.57-7.14,1.4-2.64,2.45-4.52,2.88-5.47.67-.62,1.97.14,1.83.9-.14.71-1.29,2.59-3.04,6.09Z"/>
        <path d="M25.13,20.39c.76.12,6.33-6.9,6.45-7.28.38-.38,2.21.17,1.76,1.02-.52.79-3.24,6.07-2.43,6.33.59.19,3.97-3.76,4.76-5,.4-.43.71-.07.57.41-.52.93-3.24,5.14-4.59,5.45-1.26.29-2.59-.71-2.78-1.52-.21-.93.17-1.81.31-2.24-.26.36-1.83,2.78-3.5,3.69-1,.55-2.83-.45-2.64-1.81.36-2.35,3.5-6.38,3.54-7.04.33-.48,2.07.31,1.9.98-.17.69-4.21,6.88-3.35,7.02Z"/>
        <path d="M39.19,22.22c1.64-.07,2.85.07,3.35.24.45.17.24.71-.24.64-.45-.19-1.93-.21-3.69,0-1.4,2.09-3.26,3.9-5.33,4-2.05.07-3.9-1.09-3.52-2.09.38-.79,3.76-1.95,5.54-2.31.5-.1.97-.19,1.45-.26.88-1.36,1.31-2.47,1.83-3.57-.76.98-1.71,1.9-2.71,2.4-.57.29-2.17-.55-2.45-1.12-.33-.83.29-2.74,1.43-4.47,1.33-2.02,2.62-3.16,3.59-3.81,2.19-1.43,4.85,1.26,4.81,1.93-.02.45-.69.88-1.31,1.12.29.14.5.36.57.55-.09.24-.69.81-2.07,4.21-.33.81-.76,1.69-1.26,2.54ZM35.6,24.03l.36-.48c-.67.17-1.31.33-1.93.57-4.42,1.62-2.35,2.07-1.88,2.07.62,0,2.14-.57,3.45-2.17ZM39.95,15.63l.24-.43c.21-.36.55-.52.88-.52.26-.57.93-1.52.59-1.81-1.12-.95-3.78,1.86-4.69,3.4-1.19,1.97-2.02,3.88-1.59,3.95.52.1,3.47-2.78,4.57-4.59Z"/>
        <path d="M51.98,17.82s3.47-4.71,5.3-5.28c.98-.31,2.55.57,2.14,1.74-.69,1.93-3.31,6.95-2.19,6.83.69-.07,2.17-1.57,2.97-2.71.38-.05.48.09.41.31-.21.83-1.05,2.67-2.17,3.31-1.14.67-3.64-.83-3.45-2.24.33-2.38,2.76-5.9,2.31-5.95-1-.1-6.07,6.45-6.33,7.16-.57.55-2.4-.26-2.19-.93s3.09-6.28,3.33-7.4c.55-.38,1.86.31,1.78.88-.09.81-1.93,4.28-1.93,4.28Z"/>
        <path d="M66.34,11.66c-.38-1.36-.17-3.45,2.47-4.88,2.74-1.47,8.25-1.45,10.71.59,2.05,1.71,1.59,4.38-.76,6.3-2.95,2.43-6.59,3.24-8.25,3.52-1.09,2.4-2.28,5.4-2.12,5.9-.38.33-2.19-.31-2.19-1.14,0-.9,1.57-3.83,2.45-5.95.88-2.07,3.92-7.99,4.42-8.94-1.17.24-2.35.67-3.38,1.28-1.95,1.17-2.83,2.76-2.71,3.33-.02.57-.52.45-.64-.02ZM71.01,16.08c1.33-.36,3.47-1.17,5.19-2.62,2.4-2.05,3.42-4.9,1.4-5.99-.9-.48-2.12-.64-3.43-.55.62.21,1.12.5,1.05.93-.55.69-2.43,4.35-4.21,8.23Z"/>
        <path d="M82.59,14.23c-1.64,3.28-2.85,6.95-1.69,6.4,1-.48,3.76-3.97,4.62-5.28.36-.55.88-.07.62.38-.71,1.33-3.35,5.28-4.8,5.9-1.07.45-2.78-.48-2.97-1.78-.14-1.17.45-3.14,2.57-7.14,1.4-2.64,2.45-4.52,2.88-5.47.67-.62,1.97.14,1.83.9-.14.71-1.29,2.59-3.04,6.09Z"/>
        <path d="M92.1,15.01c.5.38.9.93.71,1.17-.36.48-.57.81-1.09,2-.62,1.43-.88,2.28-.4,2.24.79-.07,4.07-3.92,4.64-4.88.31-.45.93-.26.62.29-.55,1.05-2.78,4.28-4.16,5.23-1.17.81-2.36.12-3.02-.55-.43-.43-.21-1.76.21-2.64-.67,1-2.09,3-3.33,3.64-.64.33-2.5-.83-2.64-1.67-.19-1.09.79-3.52,2.47-5.4,1.76-1.95,3.14-2.52,4.23-2.76,1.24-.26,3.81,1.5,3.47,2.31-.24.55-1.19.95-1.71,1.02ZM91.75,14.77c.09-.5.74-1.64.36-1.97-.4-.33-2.64.9-4.14,2.88-2.21,2.93-2.55,4.57-2.24,4.66.57.19,4.31-3.97,5.21-5.61.12-.21.45-.14.81.05Z"/>
        <path d="M100.88,22.15c1.64-.12,2.97-.07,3.42.12.5.21.26.74-.12.71-.33-.14-1.97-.09-3.95.17-1.67,2.4-3.97,4.4-6.35,4.45-1.52.02-3.43-1.57-2.97-2.57.59-1.24,4.07-2.14,7.35-2.59,1.12-1.52,1.5-2.64,2.09-3.85l.26-.57c-1.24,1.57-2.69,3.19-3.33,3.28-.83.12-2.85-.74-2.76-1.93.26-2.35,2.78-6.57,3.16-6.92.59-.57,2.28-.05,2.28.69-.79.4-4.26,7.18-3.19,7.28.5.05,3.88-3.59,5.47-6.07.21-.48.45-.93.69-1.33.55-1.07,2.07-.14,2.24.43-.24.19-1.62,2.85-3.02,6.23-.33.81-.76,1.64-1.28,2.47ZM97.19,23.74s.02-.05.05-.07c-.59.14-1.19.31-1.71.5-3.07,1.07-4.02,2.12-2.85,2.26,1.05.14,2.33-.26,4.52-2.69Z"/>
      </g>
      <g>
        <path class="cls-1" d="M5.89,11.66c-.38-1.36-.17-3.45,2.47-4.88,2.74-1.47,8.25-1.45,10.71.59,2.05,1.71,1.59,4.38-.76,6.3-2.95,2.43-6.59,3.24-8.25,3.52-1.09,2.4-2.28,5.4-2.12,5.9-.38.33-2.19-.31-2.19-1.14,0-.9,1.57-3.83,2.45-5.95.88-2.07,3.92-7.99,4.42-8.94-1.17.24-2.35.67-3.38,1.28-1.95,1.17-2.83,2.76-2.71,3.33-.02.57-.52.45-.64-.02ZM10.56,16.08c1.33-.36,3.47-1.17,5.19-2.62,2.4-2.05,3.42-4.9,1.4-5.99-.9-.48-2.12-.64-3.43-.55.62.21,1.12.5,1.05.93-.55.69-2.43,4.35-4.21,8.23Z"/>
        <path class="cls-1" d="M22.14,14.23c-1.64,3.28-2.85,6.95-1.69,6.4,1-.48,3.76-3.97,4.62-5.28.36-.55.88-.07.62.38-.71,1.33-3.35,5.28-4.8,5.9-1.07.45-2.78-.48-2.97-1.78-.14-1.17.45-3.14,2.57-7.14,1.4-2.64,2.45-4.52,2.88-5.47.67-.62,1.97.14,1.83.9-.14.71-1.29,2.59-3.04,6.09Z"/>
        <path class="cls-1" d="M25.13,20.39c.76.12,6.33-6.9,6.45-7.28.38-.38,2.21.17,1.76,1.02-.52.79-3.24,6.07-2.43,6.33.59.19,3.97-3.76,4.76-5,.4-.43.71-.07.57.41-.52.93-3.24,5.14-4.59,5.45-1.26.29-2.59-.71-2.78-1.52-.21-.93.17-1.81.31-2.24-.26.36-1.83,2.78-3.5,3.69-1,.55-2.83-.45-2.64-1.81.36-2.35,3.5-6.38,3.54-7.04.33-.48,2.07.31,1.9.98-.17.69-4.21,6.88-3.35,7.02Z"/>
        <path class="cls-1" d="M39.19,22.22c1.64-.07,2.85.07,3.35.24.45.17.24.71-.24.64-.45-.19-1.93-.21-3.69,0-1.4,2.09-3.26,3.9-5.33,4-2.05.07-3.9-1.09-3.52-2.09.38-.79,3.76-1.95,5.54-2.31.5-.1.97-.19,1.45-.26.88-1.36,1.31-2.47,1.83-3.57-.76.98-1.71,1.9-2.71,2.4-.57.29-2.17-.55-2.45-1.12-.33-.83.29-2.74,1.43-4.47,1.33-2.02,2.62-3.16,3.59-3.81,2.19-1.43,4.85,1.26,4.81,1.93-.02.45-.69.88-1.31,1.12.29.14.5.36.57.55-.09.24-.69.81-2.07,4.21-.33.81-.76,1.69-1.26,2.54ZM35.6,24.03l.36-.48c-.67.17-1.31.33-1.93.57-4.42,1.62-2.35,2.07-1.88,2.07.62,0,2.14-.57,3.45-2.17ZM39.95,15.63l.24-.43c.21-.36.55-.52.88-.52.26-.57.93-1.52.59-1.81-1.12-.95-3.78,1.86-4.69,3.4-1.19,1.97-2.02,3.88-1.59,3.95.52.1,3.47-2.78,4.57-4.59Z"/>
        <path class="cls-1" d="M51.98,17.82s3.47-4.71,5.3-5.28c.98-.31,2.55.57,2.14,1.74-.69,1.93-3.31,6.95-2.19,6.83.69-.07,2.17-1.57,2.97-2.71.38-.05.48.09.41.31-.21.83-1.05,2.67-2.17,3.31-1.14.67-3.64-.83-3.45-2.24.33-2.38,2.76-5.9,2.31-5.95-1-.1-6.07,6.45-6.33,7.16-.57.55-2.4-.26-2.19-.93s3.09-6.28,3.33-7.4c.55-.38,1.86.31,1.78.88-.09.81-1.93,4.28-1.93,4.28Z"/>
        <path class="cls-1" d="M66.34,11.66c-.38-1.36-.17-3.45,2.47-4.88,2.74-1.47,8.25-1.45,10.71.59,2.05,1.71,1.59,4.38-.76,6.3-2.95,2.43-6.59,3.24-8.25,3.52-1.09,2.4-2.28,5.4-2.12,5.9-.38.33-2.19-.31-2.19-1.14,0-.9,1.57-3.83,2.45-5.95.88-2.07,3.92-7.99,4.42-8.94-1.17.24-2.35.67-3.38,1.28-1.95,1.17-2.83,2.76-2.71,3.33-.02.57-.52.45-.64-.02ZM71.01,16.08c1.33-.36,3.47-1.17,5.19-2.62,2.4-2.05,3.42-4.9,1.4-5.99-.9-.48-2.12-.64-3.43-.55.62.21,1.12.5,1.05.93-.55.69-2.43,4.35-4.21,8.23Z"/>
        <path class="cls-1" d="M82.59,14.23c-1.64,3.28-2.85,6.95-1.69,6.4,1-.48,3.76-3.97,4.62-5.28.36-.55.88-.07.62.38-.71,1.33-3.35,5.28-4.8,5.9-1.07.45-2.78-.48-2.97-1.78-.14-1.17.45-3.14,2.57-7.14,1.4-2.64,2.45-4.52,2.88-5.47.67-.62,1.97.14,1.83.9-.14.71-1.29,2.59-3.04,6.09Z"/>
        <path class="cls-1" d="M92.1,15.01c.5.38.9.93.71,1.17-.36.48-.57.81-1.09,2-.62,1.43-.88,2.28-.4,2.24.79-.07,4.07-3.92,4.64-4.88.31-.45.93-.26.62.29-.55,1.05-2.78,4.28-4.16,5.23-1.17.81-2.36.12-3.02-.55-.43-.43-.21-1.76.21-2.64-.67,1-2.09,3-3.33,3.64-.64.33-2.5-.83-2.64-1.67-.19-1.09.79-3.52,2.47-5.4,1.76-1.95,3.14-2.52,4.23-2.76,1.24-.26,3.81,1.5,3.47,2.31-.24.55-1.19.95-1.71,1.02ZM91.75,14.77c.09-.5.74-1.64.36-1.97-.4-.33-2.64.9-4.14,2.88-2.21,2.93-2.55,4.57-2.24,4.66.57.19,4.31-3.97,5.21-5.61.12-.21.45-.14.81.05Z"/>
        <path class="cls-1" d="M100.88,22.15c1.64-.12,2.97-.07,3.42.12.5.21.26.74-.12.71-.33-.14-1.97-.09-3.95.17-1.67,2.4-3.97,4.4-6.35,4.45-1.52.02-3.43-1.57-2.97-2.57.59-1.24,4.07-2.14,7.35-2.59,1.12-1.52,1.5-2.64,2.09-3.85l.26-.57c-1.24,1.57-2.69,3.19-3.33,3.28-.83.12-2.85-.74-2.76-1.93.26-2.35,2.78-6.57,3.16-6.92.59-.57,2.28-.05,2.28.69-.79.4-4.26,7.18-3.19,7.28.5.05,3.88-3.59,5.47-6.07.21-.48.45-.93.69-1.33.55-1.07,2.07-.14,2.24.43-.24.19-1.62,2.85-3.02,6.23-.33.81-.76,1.64-1.28,2.47ZM97.19,23.74s.02-.05.05-.07c-.59.14-1.19.31-1.71.5-3.07,1.07-4.02,2.12-2.85,2.26,1.05.14,2.33-.26,4.52-2.69Z"/>
      </g>
      <g>
        <path class="cls-2" d="M5.89,11.66c-.38-1.36-.17-3.45,2.47-4.88,2.74-1.47,8.25-1.45,10.71.59,2.05,1.71,1.59,4.38-.76,6.3-2.95,2.43-6.59,3.24-8.25,3.52-1.09,2.4-2.28,5.4-2.12,5.9-.38.33-2.19-.31-2.19-1.14,0-.9,1.57-3.83,2.45-5.95.88-2.07,3.92-7.99,4.42-8.94-1.17.24-2.35.67-3.38,1.28-1.95,1.17-2.83,2.76-2.71,3.33-.02.57-.52.45-.64-.02ZM10.56,16.08c1.33-.36,3.47-1.17,5.19-2.62,2.4-2.05,3.42-4.9,1.4-5.99-.9-.48-2.12-.64-3.43-.55.62.21,1.12.5,1.05.93-.55.69-2.43,4.35-4.21,8.23Z"/>
        <path class="cls-2" d="M22.14,14.23c-1.64,3.28-2.85,6.95-1.69,6.4,1-.48,3.76-3.97,4.62-5.28.36-.55.88-.07.62.38-.71,1.33-3.35,5.28-4.8,5.9-1.07.45-2.78-.48-2.97-1.78-.14-1.17.45-3.14,2.57-7.14,1.4-2.64,2.45-4.52,2.88-5.47.67-.62,1.97.14,1.83.9-.14.71-1.29,2.59-3.04,6.09Z"/>
        <path class="cls-2" d="M25.13,20.39c.76.12,6.33-6.9,6.45-7.28.38-.38,2.21.17,1.76,1.02-.52.79-3.24,6.07-2.43,6.33.59.19,3.97-3.76,4.76-5,.4-.43.71-.07.57.41-.52.93-3.24,5.14-4.59,5.45-1.26.29-2.59-.71-2.78-1.52-.21-.93.17-1.81.31-2.24-.26.36-1.83,2.78-3.5,3.69-1,.55-2.83-.45-2.64-1.81.36-2.35,3.5-6.38,3.54-7.04.33-.48,2.07.31,1.9.98-.17.69-4.21,6.88-3.35,7.02Z"/>
        <path class="cls-2" d="M39.19,22.22c1.64-.07,2.85.07,3.35.24.45.17.24.71-.24.64-.45-.19-1.93-.21-3.69,0-1.4,2.09-3.26,3.9-5.33,4-2.05.07-3.9-1.09-3.52-2.09.38-.79,3.76-1.95,5.54-2.31.5-.1.97-.19,1.45-.26.88-1.36,1.31-2.47,1.83-3.57-.76.98-1.71,1.9-2.71,2.4-.57.29-2.17-.55-2.45-1.12-.33-.83.29-2.74,1.43-4.47,1.33-2.02,2.62-3.16,3.59-3.81,2.19-1.43,4.85,1.26,4.81,1.93-.02.45-.69.88-1.31,1.12.29.14.5.36.57.55-.09.24-.69.81-2.07,4.21-.33.81-.76,1.69-1.26,2.54ZM35.6,24.03l.36-.48c-.67.17-1.31.33-1.93.57-4.42,1.62-2.35,2.07-1.88,2.07.62,0,2.14-.57,3.45-2.17ZM39.95,15.63l.24-.43c.21-.36.55-.52.88-.52.26-.57.93-1.52.59-1.81-1.12-.95-3.78,1.86-4.69,3.4-1.19,1.97-2.02,3.88-1.59,3.95.52.1,3.47-2.78,4.57-4.59Z"/>
        <path class="cls-2" d="M51.98,17.82s3.47-4.71,5.3-5.28c.98-.31,2.55.57,2.14,1.74-.69,1.93-3.31,6.95-2.19,6.83.69-.07,2.17-1.57,2.97-2.71.38-.05.48.09.41.31-.21.83-1.05,2.67-2.17,3.31-1.14.67-3.64-.83-3.45-2.24.33-2.38,2.76-5.9,2.31-5.95-1-.1-6.07,6.45-6.33,7.16-.57.55-2.4-.26-2.19-.93s3.09-6.28,3.33-7.4c.55-.38,1.86.31,1.78.88-.09.81-1.93,4.28-1.93,4.28Z"/>
        <path class="cls-2" d="M66.34,11.66c-.38-1.36-.17-3.45,2.47-4.88,2.74-1.47,8.25-1.45,10.71.59,2.05,1.71,1.59,4.38-.76,6.3-2.95,2.43-6.59,3.24-8.25,3.52-1.09,2.4-2.28,5.4-2.12,5.9-.38.33-2.19-.31-2.19-1.14,0-.9,1.57-3.83,2.45-5.95.88-2.07,3.92-7.99,4.42-8.94-1.17.24-2.35.67-3.38,1.28-1.95,1.17-2.83,2.76-2.71,3.33-.02.57-.52.45-.64-.02ZM71.01,16.08c1.33-.36,3.47-1.17,5.19-2.62,2.4-2.05,3.42-4.9,1.4-5.99-.9-.48-2.12-.64-3.43-.55.62.21,1.12.5,1.05.93-.55.69-2.43,4.35-4.21,8.23Z"/>
        <path class="cls-2" d="M82.59,14.23c-1.64,3.28-2.85,6.95-1.69,6.4,1-.48,3.76-3.97,4.62-5.28.36-.55.88-.07.62.38-.71,1.33-3.35,5.28-4.8,5.9-1.07.45-2.78-.48-2.97-1.78-.14-1.17.45-3.14,2.57-7.14,1.4-2.64,2.45-4.52,2.88-5.47.67-.62,1.97.14,1.83.9-.14.71-1.29,2.59-3.04,6.09Z"/>
        <path class="cls-2" d="M92.1,15.01c.5.38.9.93.71,1.17-.36.48-.57.81-1.09,2-.62,1.43-.88,2.28-.4,2.24.79-.07,4.07-3.92,4.64-4.88.31-.45.93-.26.62.29-.55,1.05-2.78,4.28-4.16,5.23-1.17.81-2.36.12-3.02-.55-.43-.43-.21-1.76.21-2.64-.67,1-2.09,3-3.33,3.64-.64.33-2.5-.83-2.64-1.67-.19-1.09.79-3.52,2.47-5.4,1.76-1.95,3.14-2.52,4.23-2.76,1.24-.26,3.81,1.5,3.47,2.31-.24.55-1.19.95-1.71,1.02ZM91.75,14.77c.09-.5.74-1.64.36-1.97-.4-.33-2.64.9-4.14,2.88-2.21,2.93-2.55,4.57-2.24,4.66.57.19,4.31-3.97,5.21-5.61.12-.21.45-.14.81.05Z"/>
        <path class="cls-2" d="M100.88,22.15c1.64-.12,2.97-.07,3.42.12.5.21.26.74-.12.71-.33-.14-1.97-.09-3.95.17-1.67,2.4-3.97,4.4-6.35,4.45-1.52.02-3.43-1.57-2.97-2.57.59-1.24,4.07-2.14,7.35-2.59,1.12-1.52,1.5-2.64,2.09-3.85l.26-.57c-1.24,1.57-2.69,3.19-3.33,3.28-.83.12-2.85-.74-2.76-1.93.26-2.35,2.78-6.57,3.16-6.92.59-.57,2.28-.05,2.28.69-.79.4-4.26,7.18-3.19,7.28.5.05,3.88-3.59,5.47-6.07.21-.48.45-.93.69-1.33.55-1.07,2.07-.14,2.24.43-.24.19-1.62,2.85-3.02,6.23-.33.81-.76,1.64-1.28,2.47ZM97.19,23.74s.02-.05.05-.07c-.59.14-1.19.31-1.71.5-3.07,1.07-4.02,2.12-2.85,2.26,1.05.14,2.33-.26,4.52-2.69Z"/>
      </g>
      <g>
        <path class="cls-3" d="M5.89,11.66c-.38-1.36-.17-3.45,2.47-4.88,2.74-1.47,8.25-1.45,10.71.59,2.05,1.71,1.59,4.38-.76,6.3-2.95,2.43-6.59,3.24-8.25,3.52-1.09,2.4-2.28,5.4-2.12,5.9-.38.33-2.19-.31-2.19-1.14,0-.9,1.57-3.83,2.45-5.95.88-2.07,3.92-7.99,4.42-8.94-1.17.24-2.35.67-3.38,1.28-1.95,1.17-2.83,2.76-2.71,3.33-.02.57-.52.45-.64-.02ZM10.56,16.08c1.33-.36,3.47-1.17,5.19-2.62,2.4-2.05,3.42-4.9,1.4-5.99-.9-.48-2.12-.64-3.43-.55.62.21,1.12.5,1.05.93-.55.69-2.43,4.35-4.21,8.23Z"/>
        <path class="cls-3" d="M22.14,14.23c-1.64,3.28-2.85,6.95-1.69,6.4,1-.48,3.76-3.97,4.62-5.28.36-.55.88-.07.62.38-.71,1.33-3.35,5.28-4.8,5.9-1.07.45-2.78-.48-2.97-1.78-.14-1.17.45-3.14,2.57-7.14,1.4-2.64,2.45-4.52,2.88-5.47.67-.62,1.97.14,1.83.9-.14.71-1.29,2.59-3.04,6.09Z"/>
        <path class="cls-3" d="M25.13,20.39c.76.12,6.33-6.9,6.45-7.28.38-.38,2.21.17,1.76,1.02-.52.79-3.24,6.07-2.43,6.33.59.19,3.97-3.76,4.76-5,.4-.43.71-.07.57.41-.52.93-3.24,5.14-4.59,5.45-1.26.29-2.59-.71-2.78-1.52-.21-.93.17-1.81.31-2.24-.26.36-1.83,2.78-3.5,3.69-1,.55-2.83-.45-2.64-1.81.36-2.35,3.5-6.38,3.54-7.04.33-.48,2.07.31,1.9.98-.17.69-4.21,6.88-3.35,7.02Z"/>
        <path class="cls-3" d="M39.19,22.22c1.64-.07,2.85.07,3.35.24.45.17.24.71-.24.64-.45-.19-1.93-.21-3.69,0-1.4,2.09-3.26,3.9-5.33,4-2.05.07-3.9-1.09-3.52-2.09.38-.79,3.76-1.95,5.54-2.31.5-.1.97-.19,1.45-.26.88-1.36,1.31-2.47,1.83-3.57-.76.98-1.71,1.9-2.71,2.4-.57.29-2.17-.55-2.45-1.12-.33-.83.29-2.74,1.43-4.47,1.33-2.02,2.62-3.16,3.59-3.81,2.19-1.43,4.85,1.26,4.81,1.93-.02.45-.69.88-1.31,1.12.29.14.5.36.57.55-.09.24-.69.81-2.07,4.21-.33.81-.76,1.69-1.26,2.54ZM35.6,24.03l.36-.48c-.67.17-1.31.33-1.93.57-4.42,1.62-2.35,2.07-1.88,2.07.62,0,2.14-.57,3.45-2.17ZM39.95,15.63l.24-.43c.21-.36.55-.52.88-.52.26-.57.93-1.52.59-1.81-1.12-.95-3.78,1.86-4.69,3.4-1.19,1.97-2.02,3.88-1.59,3.95.52.1,3.47-2.78,4.57-4.59Z"/>
        <path class="cls-3" d="M51.98,17.82s3.47-4.71,5.3-5.28c.98-.31,2.55.57,2.14,1.74-.69,1.93-3.31,6.95-2.19,6.83.69-.07,2.17-1.57,2.97-2.71.38-.05.48.09.41.31-.21.83-1.05,2.67-2.17,3.31-1.14.67-3.64-.83-3.45-2.24.33-2.38,2.76-5.9,2.31-5.95-1-.1-6.07,6.45-6.33,7.16-.57.55-2.4-.26-2.19-.93s3.09-6.28,3.33-7.4c.55-.38,1.86.31,1.78.88-.09.81-1.93,4.28-1.93,4.28Z"/>
        <path class="cls-3" d="M66.34,11.66c-.38-1.36-.17-3.45,2.47-4.88,2.74-1.47,8.25-1.45,10.71.59,2.05,1.71,1.59,4.38-.76,6.3-2.95,2.43-6.59,3.24-8.25,3.52-1.09,2.4-2.28,5.4-2.12,5.9-.38.33-2.19-.31-2.19-1.14,0-.9,1.57-3.83,2.45-5.95.88-2.07,3.92-7.99,4.42-8.94-1.17.24-2.35.67-3.38,1.28-1.95,1.17-2.83,2.76-2.71,3.33-.02.57-.52.45-.64-.02ZM71.01,16.08c1.33-.36,3.47-1.17,5.19-2.62,2.4-2.05,3.42-4.9,1.4-5.99-.9-.48-2.12-.64-3.43-.55.62.21,1.12.5,1.05.93-.55.69-2.43,4.35-4.21,8.23Z"/>
        <path class="cls-3" d="M82.59,14.23c-1.64,3.28-2.85,6.95-1.69,6.4,1-.48,3.76-3.97,4.62-5.28.36-.55.88-.07.62.38-.71,1.33-3.35,5.28-4.8,5.9-1.07.45-2.78-.48-2.97-1.78-.14-1.17.45-3.14,2.57-7.14,1.4-2.64,2.45-4.52,2.88-5.47.67-.62,1.97.14,1.83.9-.14.71-1.29,2.59-3.04,6.09Z"/>
        <path class="cls-3" d="M92.1,15.01c.5.38.9.93.71,1.17-.36.48-.57.81-1.09,2-.62,1.43-.88,2.28-.4,2.24.79-.07,4.07-3.92,4.64-4.88.31-.45.93-.26.62.29-.55,1.05-2.78,4.28-4.16,5.23-1.17.81-2.36.12-3.02-.55-.43-.43-.21-1.76.21-2.64-.67,1-2.09,3-3.33,3.64-.64.33-2.5-.83-2.64-1.67-.19-1.09.79-3.52,2.47-5.4,1.76-1.95,3.14-2.52,4.23-2.76,1.24-.26,3.81,1.5,3.47,2.31-.24.55-1.19.95-1.71,1.02ZM91.75,14.77c.09-.5.74-1.64.36-1.97-.4-.33-2.64.9-4.14,2.88-2.21,2.93-2.55,4.57-2.24,4.66.57.19,4.31-3.97,5.21-5.61.12-.21.45-.14.81.05Z"/>
        <path class="cls-3" d="M100.88,22.15c1.64-.12,2.97-.07,3.42.12.5.21.26.74-.12.71-.33-.14-1.97-.09-3.95.17-1.67,2.4-3.97,4.4-6.35,4.45-1.52.02-3.43-1.57-2.97-2.57.59-1.24,4.07-2.14,7.35-2.59,1.12-1.52,1.5-2.64,2.09-3.85l.26-.57c-1.24,1.57-2.69,3.19-3.33,3.28-.83.12-2.85-.74-2.76-1.93.26-2.35,2.78-6.57,3.16-6.92.59-.57,2.28-.05,2.28.69-.79.4-4.26,7.18-3.19,7.28.5.05,3.88-3.59,5.47-6.07.21-.48.45-.93.69-1.33.55-1.07,2.07-.14,2.24.43-.24.19-1.62,2.85-3.02,6.23-.33.81-.76,1.64-1.28,2.47ZM97.19,23.74s.02-.05.05-.07c-.59.14-1.19.31-1.71.5-3.07,1.07-4.02,2.12-2.85,2.26,1.05.14,2.33-.26,4.52-2.69Z"/>
      </g>
      <g>
        <path class="cls-4" d="M5.89,11.66c-.38-1.36-.17-3.45,2.47-4.88,2.74-1.47,8.25-1.45,10.71.59,2.05,1.71,1.59,4.38-.76,6.3-2.95,2.43-6.59,3.24-8.25,3.52-1.09,2.4-2.28,5.4-2.12,5.9-.38.33-2.19-.31-2.19-1.14,0-.9,1.57-3.83,2.45-5.95.88-2.07,3.92-7.99,4.42-8.94-1.17.24-2.35.67-3.38,1.28-1.95,1.17-2.83,2.76-2.71,3.33-.02.57-.52.45-.64-.02ZM10.56,16.08c1.33-.36,3.47-1.17,5.19-2.62,2.4-2.05,3.42-4.9,1.4-5.99-.9-.48-2.12-.64-3.43-.55.62.21,1.12.5,1.05.93-.55.69-2.43,4.35-4.21,8.23Z"/>
        <path class="cls-4" d="M22.14,14.23c-1.64,3.28-2.85,6.95-1.69,6.4,1-.48,3.76-3.97,4.62-5.28.36-.55.88-.07.62.38-.71,1.33-3.35,5.28-4.8,5.9-1.07.45-2.78-.48-2.97-1.78-.14-1.17.45-3.14,2.57-7.14,1.4-2.64,2.45-4.52,2.88-5.47.67-.62,1.97.14,1.83.9-.14.71-1.29,2.59-3.04,6.09Z"/>
        <path class="cls-4" d="M25.13,20.39c.76.12,6.33-6.9,6.45-7.28.38-.38,2.21.17,1.76,1.02-.52.79-3.24,6.07-2.43,6.33.59.19,3.97-3.76,4.76-5,.4-.43.71-.07.57.41-.52.93-3.24,5.14-4.59,5.45-1.26.29-2.59-.71-2.78-1.52-.21-.93.17-1.81.31-2.24-.26.36-1.83,2.78-3.5,3.69-1,.55-2.83-.45-2.64-1.81.36-2.35,3.5-6.38,3.54-7.04.33-.48,2.07.31,1.9.98-.17.69-4.21,6.88-3.35,7.02Z"/>
        <path class="cls-4" d="M39.19,22.22c1.64-.07,2.85.07,3.35.24.45.17.24.71-.24.64-.45-.19-1.93-.21-3.69,0-1.4,2.09-3.26,3.9-5.33,4-2.05.07-3.9-1.09-3.52-2.09.38-.79,3.76-1.95,5.54-2.31.5-.1.97-.19,1.45-.26.88-1.36,1.31-2.47,1.83-3.57-.76.98-1.71,1.9-2.71,2.4-.57.29-2.17-.55-2.45-1.12-.33-.83.29-2.74,1.43-4.47,1.33-2.02,2.62-3.16,3.59-3.81,2.19-1.43,4.85,1.26,4.81,1.93-.02.45-.69.88-1.31,1.12.29.14.5.36.57.55-.09.24-.69.81-2.07,4.21-.33.81-.76,1.69-1.26,2.54ZM35.6,24.03l.36-.48c-.67.17-1.31.33-1.93.57-4.42,1.62-2.35,2.07-1.88,2.07.62,0,2.14-.57,3.45-2.17ZM39.95,15.63l.24-.43c.21-.36.55-.52.88-.52.26-.57.93-1.52.59-1.81-1.12-.95-3.78,1.86-4.69,3.4-1.19,1.97-2.02,3.88-1.59,3.95.52.1,3.47-2.78,4.57-4.59Z"/>
        <path class="cls-4" d="M51.98,17.82s3.47-4.71,5.3-5.28c.98-.31,2.55.57,2.14,1.74-.69,1.93-3.31,6.95-2.19,6.83.69-.07,2.17-1.57,2.97-2.71.38-.05.48.09.41.31-.21.83-1.05,2.67-2.17,3.31-1.14.67-3.64-.83-3.45-2.24.33-2.38,2.76-5.9,2.31-5.95-1-.1-6.07,6.45-6.33,7.16-.57.55-2.4-.26-2.19-.93s3.09-6.28,3.33-7.4c.55-.38,1.86.31,1.78.88-.09.81-1.93,4.28-1.93,4.28Z"/>
        <path class="cls-4" d="M66.34,11.66c-.38-1.36-.17-3.45,2.47-4.88,2.74-1.47,8.25-1.45,10.71.59,2.05,1.71,1.59,4.38-.76,6.3-2.95,2.43-6.59,3.24-8.25,3.52-1.09,2.4-2.28,5.4-2.12,5.9-.38.33-2.19-.31-2.19-1.14,0-.9,1.57-3.83,2.45-5.95.88-2.07,3.92-7.99,4.42-8.94-1.17.24-2.35.67-3.38,1.28-1.95,1.17-2.83,2.76-2.71,3.33-.02.57-.52.45-.64-.02ZM71.01,16.08c1.33-.36,3.47-1.17,5.19-2.62,2.4-2.05,3.42-4.9,1.4-5.99-.9-.48-2.12-.64-3.43-.55.62.21,1.12.5,1.05.93-.55.69-2.43,4.35-4.21,8.23Z"/>
        <path class="cls-4" d="M82.59,14.23c-1.64,3.28-2.85,6.95-1.69,6.4,1-.48,3.76-3.97,4.62-5.28.36-.55.88-.07.62.38-.71,1.33-3.35,5.28-4.8,5.9-1.07.45-2.78-.48-2.97-1.78-.14-1.17.45-3.14,2.57-7.14,1.4-2.64,2.45-4.52,2.88-5.47.67-.62,1.97.14,1.83.9-.14.71-1.29,2.59-3.04,6.09Z"/>
        <path class="cls-4" d="M92.1,15.01c.5.38.9.93.71,1.17-.36.48-.57.81-1.09,2-.62,1.43-.88,2.28-.4,2.24.79-.07,4.07-3.92,4.64-4.88.31-.45.93-.26.62.29-.55,1.05-2.78,4.28-4.16,5.23-1.17.81-2.36.12-3.02-.55-.43-.43-.21-1.76.21-2.64-.67,1-2.09,3-3.33,3.64-.64.33-2.5-.83-2.64-1.67-.19-1.09.79-3.52,2.47-5.4,1.76-1.95,3.14-2.52,4.23-2.76,1.24-.26,3.81,1.5,3.47,2.31-.24.55-1.19.95-1.71,1.02ZM91.75,14.77c.09-.5.74-1.64.36-1.97-.4-.33-2.64.9-4.14,2.88-2.21,2.93-2.55,4.57-2.24,4.66.57.19,4.31-3.97,5.21-5.61.12-.21.45-.14.81.05Z"/>
        <path class="cls-4" d="M100.88,22.15c1.64-.12,2.97-.07,3.42.12.5.21.26.74-.12.71-.33-.14-1.97-.09-3.95.17-1.67,2.4-3.97,4.4-6.35,4.45-1.52.02-3.43-1.57-2.97-2.57.59-1.24,4.07-2.14,7.35-2.59,1.12-1.52,1.5-2.64,2.09-3.85l.26-.57c-1.24,1.57-2.69,3.19-3.33,3.28-.83.12-2.85-.74-2.76-1.93.26-2.35,2.78-6.57,3.16-6.92.59-.57,2.28-.05,2.28.69-.79.4-4.26,7.18-3.19,7.28.5.05,3.88-3.59,5.47-6.07.21-.48.45-.93.69-1.33.55-1.07,2.07-.14,2.24.43-.24.19-1.62,2.85-3.02,6.23-.33.81-.76,1.64-1.28,2.47ZM97.19,23.74s.02-.05.05-.07c-.59.14-1.19.31-1.71.5-3.07,1.07-4.02,2.12-2.85,2.26,1.05.14,2.33-.26,4.52-2.69Z"/>
      </g>
    </g>
  </g>
</svg>