<?xml version="1.0" encoding="UTF-8"?>
<svg id="Layer_2" data-name="Layer 2" xmlns="http://www.w3.org/2000/svg" xmlns:xlink="http://www.w3.org/1999/xlink" viewBox="0 0 100 29.38">
  <defs>
    <style>
      .cls-1 {
        fill: url(#linear-gradient);
      }

      .cls-2 {
        fill: #10c7ff;
      }
    </style>
    <linearGradient id="linear-gradient" x1="-.72" y1="1.38" x2="37.76" y2="25.58" gradientUnits="userSpaceOnUse">
      <stop offset=".13" stop-color="#f737b4"/>
      <stop offset=".88" stop-color="#10c7ff"/>
    </linearGradient>
  </defs>
  <g id="Layer_1-2" data-name="Layer 1">
    <g>
      <path class="cls-1" d="M34.08,1.91c0-.89.75-1.64,1.64-1.64s1.64.75,1.64,1.64v20.1c0,4.22-3.2,7.37-7.32,7.37s-7.32-3.15-7.32-7.37V7.28c0-2.4-1.73-4.17-4.04-4.17s-4.04,1.78-4.04,4.17v14.73c0,4.22-3.2,7.37-7.32,7.37S0,26.23,0,22.01V1.91C0,1.02.75.27,1.64.27s1.64.75,1.64,1.64v20.19c0,2.4,1.73,4.17,4.04,4.17s4.04-1.78,4.04-4.17V7.37c0-4.22,3.2-7.37,7.32-7.37s7.32,3.15,7.32,7.37v14.73c0,2.4,1.73,4.17,4.04,4.17s4.04-1.78,4.04-4.17V1.91Z"/>
      <path class="cls-2" d="M45.92,28.8c-2.9,0-4.91-2.26-4.91-4.91s2.01-4.88,4.91-4.88h5.86c.73,0,1.34.61,1.34,1.34s-.61,1.34-1.34,1.34h-5.86c-1.28,0-2.17,1.07-2.17,2.2s.88,2.23,2.17,2.23h8.88v-7.51c0-1.92-1.28-3.3-3.23-3.3h-7.87c-.73,0-1.34-.61-1.34-1.34s.61-1.34,1.34-1.34h7.87c3.42,0,5.98,2.59,5.98,5.95v8.82c0,.79-.52,1.4-1.4,1.4h-10.22Z"/>
      <path class="cls-2" d="M59.14,14.34c-.34-.67-.09-1.5.58-1.86.67-.34,1.53-.09,1.86.58l6.23,12.3,6.23-12.3c.34-.67,1.19-.92,1.86-.58.67.37.92,1.19.58,1.86l-7.2,13.92c-.27.52-.82.85-1.46.85s-1.19-.34-1.46-.85l-7.2-13.92Z"/>
      <path class="cls-2" d="M78.48,7.68c0-.98.79-1.77,1.77-1.77s1.77.79,1.77,1.77-.79,1.77-1.77,1.77-1.77-.79-1.77-1.77ZM78.88,13.76c0-.76.61-1.37,1.37-1.37s1.37.61,1.37,1.37v13.95c0,.76-.61,1.34-1.37,1.34s-1.37-.58-1.37-1.34v-13.95Z"/>
      <path class="cls-2" d="M85.87,28.8c-.76,0-1.37-.61-1.37-1.4,0-.4.18-.76.43-1.01l10.68-11.08h-9.4c-.73,0-1.34-.61-1.34-1.34s.61-1.34,1.34-1.34h12.42c.76,0,1.37.61,1.37,1.4,0,.4-.18.76-.43,1.01l-10.71,11.08h9.43c.73,0,1.34.61,1.34,1.34s-.61,1.34-1.34,1.34h-12.42Z"/>
    </g>
  </g>
</svg>